<?xml version="1.0" encoding="utf-8"?>
<!-- Generator: Adobe Illustrator 23.0.2, SVG Export Plug-In . SVG Version: 6.00 Build 0)  -->
<svg version="1.1" baseProfile="basic" id="圖層_1"
	 xmlns="http://www.w3.org/2000/svg" xmlns:xlink="http://www.w3.org/1999/xlink" x="0px" y="0px" width="40px" height="40px"
	 viewBox="0 0 40 40" xml:space="preserve">
<g>
	<path d="M13.1,37.5H2.5c-0.7,0-1.2-0.6-1.2-1.3V13.1c0-0.7,0.5-1.2,1.2-1.2h15.1c0.7,0,1.2,0.5,1.2,1.2v8.2c0,0.3,0.3,0.6,0.6,0.6
		c0.3,0,0.6-0.3,0.6-0.6v-8.2c0-1.4-1.1-2.5-2.5-2.5h-4.4V4.4V0.6c0-0.3-0.3-0.6-0.6-0.6h-5C7.2,0,6.9,0.3,6.9,0.6v3.8v6.3H2.5
		c-1.4,0-2.5,1.1-2.5,2.5v23.2c0,1.4,1.1,2.5,2.5,2.5h0v0.6c0,0.3,0.3,0.6,0.6,0.6c0.3,0,0.6-0.3,0.6-0.6v-0.6h9.4
		c0.3,0,0.6-0.3,0.6-0.6C13.8,37.8,13.5,37.5,13.1,37.5z M8.1,1.3h3.8v2.5H8.1V1.3z M8.1,5h3.8v5.6H8.1V5z"/>
	<path d="M15.6,14.4H4.4c-0.3,0-0.6,0.3-0.6,0.6c0,0.1,0.1,6.3,6.3,6.3s6.3-6.2,6.3-6.3C16.3,14.7,16,14.4,15.6,14.4z M10,20
		c-3.9,0-4.8-3-5-4.4H15C14.8,17,13.9,20,10,20z"/>
	<path d="M37.5,23.1h-5.7v-1.3c0-1.4-1.1-2.5-2.5-2.5h-3.8c-1.4,0-2.5,1.1-2.5,2.5v1.3h-5.7c-1.4,0-2.5,1.1-2.5,2.5v11.9
		c0,1.4,1.1,2.5,2.5,2.5h20.1c1.4,0,2.5-1.1,2.5-2.5V25.6C40,24.2,38.9,23.1,37.5,23.1z M35,37.5v1.3H20v-1.3c0-1.4-1.1-2.5-2.5-2.5
		h-1.3v-6.9h1.3c1.4,0,2.5-1.1,2.5-2.5v-1.3h15v1.3c0,1.4,1.1,2.5,2.5,2.5h1.3V35h-1.3C36.1,35,35,36.1,35,37.5z M38.8,25.6v1.3
		h-1.3c-0.7,0-1.3-0.6-1.3-1.3v-1.3h1.3C38.2,24.4,38.8,24.9,38.8,25.6z M24.4,21.8c0-0.7,0.5-1.2,1.2-1.2h3.8
		c0.7,0,1.2,0.5,1.2,1.2v1.3h-6.3V21.8z M17.5,24.4h1.3v1.3c0,0.7-0.6,1.3-1.3,1.3h-1.3v-1.3C16.3,24.9,16.8,24.4,17.5,24.4z
		 M16.3,37.5v-1.3h1.3c0.7,0,1.3,0.6,1.3,1.3v1.3h-1.3C16.8,38.8,16.3,38.2,16.3,37.5z M37.5,38.8h-1.3v-1.3c0-0.7,0.6-1.3,1.3-1.3
		h1.3v1.3C38.8,38.2,38.2,38.8,37.5,38.8z"/>
	<path d="M4.4,35C4.7,35,5,34.7,5,34.4V21.3c0-0.3-0.3-0.6-0.6-0.6c-0.3,0-0.6,0.3-0.6,0.6v13.1C3.8,34.7,4,35,4.4,35z"/>
	<path d="M7.5,34.4V22.5c0-0.3-0.3-0.6-0.6-0.6c-0.3,0-0.6,0.3-0.6,0.6v11.9c0,0.3,0.3,0.6,0.6,0.6C7.2,35,7.5,34.7,7.5,34.4z"/>
	<path d="M13.1,21.9c-0.3,0-0.6,0.3-0.6,0.6v11.9c0,0.3,0.3,0.6,0.6,0.6c0.3,0,0.6-0.3,0.6-0.6V22.5C13.8,22.2,13.5,21.9,13.1,21.9z
		"/>
	<path d="M10.6,34.4V23.1c0-0.3-0.3-0.6-0.6-0.6s-0.6,0.3-0.6,0.6v11.3c0,0.3,0.3,0.6,0.6,0.6S10.6,34.7,10.6,34.4z"/>
	<path d="M15,21.3c0,0.3,0.3,0.6,0.6,0.6c0.3,0,0.6-0.3,0.6-0.6s-0.3-0.6-0.6-0.6C15.3,20.6,15,20.9,15,21.3z"/>
</g>
</svg>
