<?xml version="1.0" encoding="utf-8"?>

<svg version="1.1" xmlns="http://www.w3.org/2000/svg" xmlns:xlink="http://www.w3.org/1999/xlink" x="0px" y="0px"
	 viewBox="0 0 26 25" xml:space="preserve">

<path class="st0" d="M15.9,15.6c-2.8,3.4-7.7,3.8-10.8,1C1.9,13.8,1.6,8.7,4.4,5.4S12,1.6,15.2,4.4C18.4,7.2,18.7,12.3,15.9,15.6z
	 M2.5,3.7c-3.7,4.4-3.3,11.1,0.9,14.8c4.2,3.7,10.6,3.2,14.3-1.3S21,6.2,16.8,2.5C12.6-1.3,6.2-0.7,2.5,3.7z M20.8,17.6l-1.4-1.3
	L17,19l1.5,1.3l-0.4,0.5l4.1,3.6c1,0.9,2.4,0.7,3.3-0.3s0.8-2.5-0.2-3.4l-4.1-3.6L20.8,17.6z"/>
</svg>
