<?xml version="1.0" encoding="utf-8"?>
<!-- Generator: Adobe Illustrator 23.0.2, SVG Export Plug-In . SVG Version: 6.00 Build 0)  -->
<svg version="1.1" baseProfile="basic" id="圖層_1"
	 xmlns="http://www.w3.org/2000/svg" xmlns:xlink="http://www.w3.org/1999/xlink" x="0px" y="0px" width="15px" height="22px"
	 viewBox="0 0 15 22" xml:space="preserve">
<style type="text/css">
	.st0{fill-rule:evenodd;clip-rule:evenodd;fill:#FFFFFF;}
</style>
<path  class="st0" d="M7.5,11.5c-2.1,0-3.8-1.7-3.8-3.9c0-2.1,1.7-3.8,3.8-3.8s3.8,1.7,3.8,3.8C11.3,9.8,9.6,11.5,7.5,11.5z M7.5,0
	C3.4,0,0,3.4,0,7.5c0,2.2,1.6,3.9,2.5,5.7c1.9,3.9,3.3,4.3,5,8.8c1.7-4.4,3-5.1,5-8.6c1-1.8,2.5-3.7,2.5-5.9C15,3.4,11.6,0,7.5,0z"
	/>
</svg>
