<?xml version="1.0" encoding="utf-8"?>
<!-- Generator: Adobe Illustrator 23.0.2, SVG Export Plug-In . SVG Version: 6.00 Build 0)  -->
<svg version="1.1" baseProfile="basic" id="圖層_1"
	 xmlns="http://www.w3.org/2000/svg" xmlns:xlink="http://www.w3.org/1999/xlink" x="0px" y="0px" width="18px" height="14px"
	 viewBox="0 0 18 14" xml:space="preserve">
<style type="text/css">
	.st0{opacity:0.6;}
</style>
<path d="M1.9,0.2C1.7,0.1,1.5,0,1.3,0S0.9,0.1,0.7,0.2L0.3,0.7c-0.3,0.3-0.3,0.8,0,1.1L5.8,7l-5.6,5.2C0.1,12.4,0,12.6,0,12.8
	c0,0.2,0.1,0.4,0.2,0.5l0.5,0.5C0.9,13.9,1.1,14,1.3,14s0.4-0.1,0.6-0.2l6.7-6.2C8.7,7.4,8.8,7.2,8.8,7c0-0.2-0.1-0.4-0.2-0.6
	L1.9,0.2z"/>
<path class="st0" d="M11.1,0.2C10.9,0.1,10.7,0,10.5,0c-0.2,0-0.4,0.1-0.6,0.2L9.4,0.7C9.1,1,9.1,1.5,9.4,1.8L15,7l-5.6,5.2
	c-0.2,0.2-0.2,0.3-0.2,0.6c0,0.2,0.1,0.4,0.2,0.5l0.5,0.5c0.1,0.1,0.4,0.2,0.6,0.2s0.4-0.1,0.6-0.2l6.7-6.2C17.9,7.4,18,7.2,18,7
	c0-0.2-0.1-0.4-0.2-0.6L11.1,0.2z"/>
</svg>
