<?xml version="1.0" encoding="utf-8"?>
<svg version="1.1" xmlns="http://www.w3.org/2000/svg" xmlns:xlink="http://www.w3.org/1999/xlink" x="0px" y="0px"
	 viewBox="0 0 25 25" xml:space="preserve">
<g>
	<path class="st0" d="M24.3,8.4c-0.4-1.4-1.2-2.6-2.1-3.7c-0.4-0.5-1.2-0.5-1.6,0.1c-0.2,0.4-0.2,0.8,0.2,1.3c2.7,3.6,3,7.5,1,11.5
		c-0.4,0.8-0.9,1.5-1.6,2.2c-2-2.4-4.6-3.7-7.7-3.7c-3.1,0-5.7,1.3-7.7,3.7l-0.1-0.1C3,17.8,2.1,15.6,2,13.1c-0.2-3.1,0.8-5.7,3-7.9
		c2-2.1,4.5-3.1,7.3-3.2c1.3,0,2.5,0.2,3.7,0.6c0.5,0.2,1.1-0.1,1.2-0.6c0.2-0.5-0.1-1-0.7-1.2c-2.4-0.8-4.8-0.9-7.3-0.3
		C2.9,2.1-1.1,8.5,0.3,15c1.3,6.5,7.4,10.8,14,9.9c3-0.4,5.6-1.8,7.6-4.1C25,17.2,25.8,13,24.3,8.4z M6.2,21c3.2-4.1,9.4-4,12.5,0
		C15.5,23.6,10,23.9,6.2,21z"/>
	<path class="st0" d="M12.5,5.1c-2.7,0-4.8,2.1-4.8,4.8c0,2.7,2.1,4.8,4.8,4.8c2.7,0,4.8-2.2,4.8-4.8C17.3,7.3,15.2,5.1,12.5,5.1z
		 M12.5,12.8c-1.6,0-2.9-1.3-2.9-2.9c0-1.6,1.3-2.9,2.9-2.9c1.6,0,2.9,1.3,2.9,2.9C15.4,11.5,14.1,12.8,12.5,12.8z"/>
</g>
</svg>
