<?xml version="1.0" encoding="utf-8"?>
<!-- Generator: Adobe Illustrator 23.0.2, SVG Export Plug-In . SVG Version: 6.00 Build 0)  -->
<svg version="1.1" baseProfile="basic" id="圖層_1"
	 xmlns="http://www.w3.org/2000/svg" xmlns:xlink="http://www.w3.org/1999/xlink" x="0px" y="0px" width="16px" height="17px"
	 viewBox="0 0 16 17" xml:space="preserve">
<style type="text/css">
	.st0{fill-rule:evenodd;clip-rule:evenodd;}
</style>
<path class="st0" d="M8.3,8H0.5C0.2,8,0,8.2,0,8.5S0.2,9,0.5,9h7.8c0.2,1.1,1.1,1.8,2.2,1.8s2-0.8,2.2-1.8h2.8C15.8,9,16,8.8,16,8.5
	S15.8,8,15.5,8h-2.8c-0.2-1-1.1-1.8-2.2-1.8S8.5,6.9,8.3,8z M10.5,7.2c0.7,0,1.3,0.6,1.3,1.3s-0.6,1.3-1.3,1.3S9.3,9.2,9.3,8.5
	S9.8,7.2,10.5,7.2z M3.3,14.1H0.5c-0.3,0-0.5,0.2-0.5,0.5c0,0.3,0.2,0.5,0.5,0.5h2.8C3.5,16.2,4.4,17,5.5,17s2-0.8,2.2-1.9h7.8
	c0.3,0,0.5-0.2,0.5-0.5c0-0.3-0.2-0.5-0.5-0.5H7.7c-0.2-1.1-1.1-1.9-2.2-1.9S3.5,13,3.3,14.1z M5.5,13.3c0.7,0,1.3,0.6,1.3,1.3
	c0,0.7-0.6,1.3-1.3,1.3s-1.3-0.6-1.3-1.3C4.3,13.9,4.8,13.3,5.5,13.3z M3.3,1.9H0.5C0.2,1.9,0,2.1,0,2.4c0,0.3,0.2,0.5,0.5,0.5h2.8
	C3.5,4,4.4,4.8,5.5,4.8s2-0.8,2.2-1.8h7.8c0.3,0,0.5-0.2,0.5-0.5c0-0.3-0.2-0.5-0.5-0.5H7.7C7.5,0.8,6.6,0,5.5,0S3.5,0.8,3.3,1.9z
	 M5.5,1.1c0.7,0,1.3,0.6,1.3,1.3c0,0.7-0.6,1.3-1.3,1.3S4.3,3.1,4.3,2.4C4.3,1.6,4.8,1.1,5.5,1.1z"/>
</svg>
