<?xml version="1.0" encoding="utf-8"?>
<!-- Generator: Adobe Illustrator 23.0.2, SVG Export Plug-In . SVG Version: 6.00 Build 0)  -->
<svg version="1.1" baseProfile="basic" id="圖層_1"
	 xmlns="http://www.w3.org/2000/svg" xmlns:xlink="http://www.w3.org/1999/xlink" x="0px" y="0px" width="18px" height="18px"
	 viewBox="0 0 18 18" xml:space="preserve">
<style type="text/css">
	.st0{fill-rule:evenodd;clip-rule:evenodd;fill:#FFFFFF;}
</style>
<path class="st0" d="M9.7,13.5c1.4-0.2,2.3-1.3,2.3-2.6c0-1.6-1.4-2.1-2.6-2.6C8.6,8,7.8,7.7,7.8,7c0-0.6,0.6-1,1.4-1
	c1,0,1.8,0.7,1.8,0.7c0.1,0,0.1,0.1,0.2,0.1c0.1,0,0.1-0.1,0.2-0.1l0.5-1c0.1-0.1,0-0.2,0-0.3c0,0-0.7-0.7-2.1-0.9V3.4
	c0-0.1-0.1-0.2-0.2-0.2H8.6c-0.1,0-0.2,0.1-0.2,0.2v1.2C7,4.8,6.1,5.8,6.1,7c0,1.6,1.5,2.2,2.6,2.7c0.9,0.3,1.7,0.7,1.7,1.3
	c0,0.7-0.7,1.1-1.3,1.1C7.9,12,7,11.2,7,11.2c0-0.1-0.1-0.1-0.2-0.1c-0.1,0-0.1,0-0.2,0.1L6,12.1c-0.1,0.1-0.1,0.2,0,0.3
	c0,0,0.9,0.9,2.4,1.2v1.1c0,0.1,0.1,0.2,0.2,0.2h0.9c0.1,0,0.2-0.1,0.2-0.2V13.5z M9,1.7c4,0,7.3,3.3,7.3,7.3S13,16.3,9,16.3
	S1.7,13,1.7,9S5,1.7,9,1.7z M9,18c5,0,9-4,9-9s-4-9-9-9S0,4,0,9S4,18,9,18z"/>
</svg>
