<?xml version="1.0" encoding="utf-8"?>
<!-- Generator: Adobe Illustrator 23.0.2, SVG Export Plug-In . SVG Version: 6.00 Build 0)  -->
<svg version="1.1" baseProfile="basic" id="圖層_1"
	 xmlns="http://www.w3.org/2000/svg" xmlns:xlink="http://www.w3.org/1999/xlink" x="0px" y="0px" width="191px" height="52px"
	 viewBox="0 0 191 52" xml:space="preserve">
<style type="text/css">
	.st0{fill-rule:evenodd;clip-rule:evenodd;fill:#F37A69;}
	.st1{fill:#F37A69;}
</style>
<path class="st0" d="M24.1,47.7c-10.9,0-19.8-8.8-19.8-19.6S13.2,8.5,24.1,8.5c2.7,0,5.2,0.5,7.5,1.5v18.1c0,4.1-3.4,7.4-7.5,7.4
	s-7.5-3.3-7.5-7.4s3.4-7.4,7.5-7.4c0.6,0,1.2,0.1,1.8,0.2c1.2,0.3,2.3-0.4,2.6-1.6c0.3-1.2-0.4-2.3-1.6-2.6
	c-0.9-0.2-1.8-0.3-2.8-0.3c-6.5,0-11.9,5.3-11.9,11.8s5.3,11.8,11.9,11.8c6.5,0,11.9-5.3,11.9-11.8V12.4c4.8,3.6,7.9,9.3,7.9,15.7
	C43.9,38.9,35,47.7,24.1,47.7z M24.1,4.2C10.8,4.2,0,14.9,0,28.1S10.8,52,24.1,52s24.1-10.7,24.1-23.9S37.4,4.2,24.1,4.2z"/>
<path class="st0" d="M45.8,4.8C45.4,4.8,45,4.4,45,4c0-0.5,0.4-0.9,0.9-0.9c0.5,0,0.9,0.4,0.9,0.9C46.7,4.4,46.3,4.8,45.8,4.8z
	 M45.8,0c-2.2,0-4,1.8-4,4s1.8,4,4,4c2.2,0,4-1.8,4-4S48,0,45.8,0z"/>
<path class="st1" d="M55.4,38.7v-3.4c0.9,0.3,2.1,0.6,3.6,0.6c2.2,0,3.4-1,3.4-3.3V16.5h4.9v16.6c0,3.8-2.3,6.6-7.1,6.6
	C58,39.7,56.6,39.3,55.4,38.7z"/>
<polygon class="st1" points="99.1,30.6 91.7,16.6 96.8,16.6 101.8,26.3 101.9,26.3 106.8,16.6 111.4,16.6 104,30.6 104,39.5 
	99.1,39.5 "/>
<path class="st1" d="M111.2,38.5v-3.6c1.9,0.8,4.1,1.4,6.7,1.4c2.9,0,4.2-1.2,4.2-3c0-1.8-0.8-2.5-3.3-3.1l-2.1-0.5
	c-3.3-0.9-5.5-2.5-5.5-6.7c0-4,2.6-6.7,7.9-6.7c3.2,0,5,0.6,6.3,1.2V21c-1.6-0.5-3.5-1.2-6.1-1.2c-2.4,0-3.7,0.9-3.7,2.7
	c0,1.6,0.8,2.3,2.9,2.9l2,0.5c3.8,1,6,2.5,6,6.8c0,4.5-2.8,7.2-8.5,7.2C115.1,39.9,112.8,39.3,111.2,38.5z"/>
<polygon class="st1" points="127.9,16.6 132.7,16.6 132.7,25.9 141.9,25.9 141.9,16.6 146.7,16.6 146.7,39.5 141.9,39.5 141.9,29.5 
	132.7,29.5 132.7,39.5 127.9,39.5 "/>
<polygon class="st1" points="179.7,20.2 173.3,20.2 173.3,16.6 191,16.6 191,20.2 184.5,20.2 184.5,39.5 179.7,39.5 "/>
<path class="st0" d="M81.3,19.6c-4.7,0-8.6,3.8-8.6,8.5s3.8,8.5,8.6,8.5s8.6-3.8,8.6-8.5S86,19.6,81.3,19.6z M81.3,40.7
	c-7.1,0-12.8-5.7-12.8-12.7c0-7,5.7-12.7,12.8-12.7S94,21.1,94,28.1C94,35,88.3,40.7,81.3,40.7z"/>
<path class="st0" d="M161.4,19.6c-4.7,0-8.6,3.8-8.6,8.5s3.8,8.5,8.6,8.5c4.7,0,8.6-3.8,8.6-8.5S166.1,19.6,161.4,19.6z M161.4,40.7
	c-7,0-12.8-5.7-12.8-12.7c0-7,5.7-12.7,12.8-12.7c7.1,0,12.8,5.7,12.8,12.7C174.2,35,168.4,40.7,161.4,40.7z"/>
</svg>
